<svg width="24" height="24" viewBox="0 0 24 24" fill="none" xmlns="http://www.w3.org/2000/svg">
  <path d="M20.3 14.3L22 14.9V9.1L20.3 9.7C19.8 8.7 18.9 8 17.8 8H14V6H17.8C19.5 6 21 7.5 21 9.2V14.8C21 16.5 19.5 18 17.8 18H14V20H17.8C18.9 20 19.8 19.3 20.3 18.3L22 18.9V14.1L20.3 14.7C19.8 13.7 18.9 13 17.8 13H14V11H17.8C18.9 11 19.8 10.3 20.3 9.3L22 9.9V5.1L20.3 5.7C19.8 4.7 18.9 4 17.8 4H6.2C5.1 4 4.2 4.7 3.7 5.7L2 5.1V9.9L3.7 9.3C4.2 10.3 5.1 11 6.2 11H10V13H6.2C4.5 13 3 14.5 3 16.2V19.8C3 21.5 4.5 23 6.2 23H17.8C19.5 23 21 21.5 21 19.8V16.2C21 14.5 19.5 13 17.8 13H14V11H17.8C18.9 11 19.8 10.3 20.3 9.3L22 9.9V14.7Z" stroke="#292D32" stroke-width="1.5" stroke-linecap="round" stroke-linejoin="round"/>
</svg>
